<svg width="17" height="20" viewBox="0 0 17 20" fill="none" xmlns="http://www.w3.org/2000/svg">
<path d="M16.1641 15.5861C15.8874 16.2653 15.5454 16.913 15.1436 17.5191C14.6068 18.3262 14.166 18.8839 13.8282 19.1943C13.3034 19.7015 12.7396 19.9625 12.1369 19.9772C11.7051 19.9772 11.1833 19.8478 10.5756 19.5847C9.96586 19.3227 9.4061 19.1943 8.89333 19.1943C8.35656 19.1943 7.78081 19.3227 7.16408 19.5847C6.54835 19.8478 6.05057 19.9856 5.66974 19.9982C5.09299 20.0245 4.51624 19.7573 3.94149 19.1943C3.57465 18.8576 3.11586 18.2788 2.5651 17.4602C1.97535 16.5879 1.49057 15.5724 1.11073 14.4181C0.703911 13.1691 0.5 11.9611 0.5 10.7909C0.5 9.45142 0.77488 8.29498 1.32564 7.3269C1.7422 6.5666 2.33774 5.93206 3.05488 5.48439C3.76204 5.03788 4.56931 4.79746 5.39386 4.78779C5.85366 4.78779 6.45639 4.93721 7.20307 5.23185C7.94974 5.52648 8.42953 5.6759 8.63844 5.6759C8.79637 5.6759 9.32714 5.50017 10.2307 5.15187C11.0834 4.82883 11.8031 4.69519 12.3928 4.74781C13.9921 4.88355 15.1926 5.54647 15.9912 6.74184C14.5618 7.65415 13.8552 8.93055 13.8692 10.5689C13.8811 11.8453 14.322 12.907 15.1856 13.7499C15.5674 14.1345 16.0129 14.4423 16.5 14.658C16.394 14.9811 16.2821 15.2894 16.1641 15.5861ZM12.4987 0.400912C12.4987 1.40056 12.1509 2.33497 11.4602 3.19888C10.6246 4.22588 9.61501 4.82041 8.52049 4.72676C8.50618 4.60106 8.49917 4.47455 8.4995 4.34795C8.4995 3.38723 8.89533 2.36022 9.60202 1.51947C9.95387 1.09435 10.4017 0.73974 10.9444 0.457734C11.4862 0.179937 11.998 0.0263065 12.4798 0C12.4928 0.13469 12.4987 0.268327 12.4987 0.400912Z" fill="#383A3A"/>
</svg>
